<svg id="dribble" xmlns="http://www.w3.org/2000/svg" viewBox="0 0 100 100"><defs><style>.cls-1{fill:#f7f6f2;}</style></defs><path class="cls-1" d="M87.1,44.75c-2.46-14.4-10.43-24.58-24-29.73C50.29,10.2,38.13,12.2,27.19,20.41a35.64,35.64,0,0,0-13.86,22,36.37,36.37,0,0,0,6.88,30.31,36.59,36.59,0,0,0,22.11,14c1.37.3,2.79.44,4.18.66a2.19,2.19,0,0,1,.43.15h5.86c.53-.09,1.06-.21,1.6-.27A37.56,37.56,0,0,0,86.73,57.62c.28-1.35.41-2.74.62-4.11a1.61,1.61,0,0,1,.15-.36v-6C87.37,46.35,87.24,45.55,87.1,44.75Zm-33.95-26a31.21,31.21,0,0,1,17,7.19c-3,3.17-10.5,7.86-15.89,10L43.71,19.28A28,28,0,0,1,53.15,18.77ZM37.38,21.28A147.51,147.51,0,0,1,48.33,38.15a100.44,100.44,0,0,1-28.85,4.61A31.3,31.3,0,0,1,37.38,21.28ZM18.56,48.79a105,105,0,0,0,32.65-5.22l3.22,6.85C43,54.28,33.7,61.14,26,70.38A31.62,31.62,0,0,1,18.56,48.79ZM30.38,74.61c7.06-9,17-15.77,26.26-18.56,1.5,2.69,5,15.07,6.35,22.56C54.53,83,40.83,83.05,30.38,74.61Zm38.16.87a126.31,126.31,0,0,0-5.91-20.9,47.31,47.31,0,0,1,18.44.62A31.74,31.74,0,0,1,68.54,75.48ZM60.4,48.91l-3.48-7.54a62.7,62.7,0,0,0,17.46-11,30.82,30.82,0,0,1,7.06,18.79A53.8,53.8,0,0,0,60.4,48.91Z"/></svg>