<svg id="instagram" xmlns="http://www.w3.org/2000/svg" viewBox="0 0 100 100"><defs><style>.cls-1{fill:#f7f6f2;}</style></defs><path class="cls-1" d="M84.37,29.55a19,19,0,0,0-14.18-14c-.88-.24-1.79-.38-2.68-.56H32.39c-.94.21-1.89.37-2.81.63-7.33,2.08-12,6.81-14,14.17a19.76,19.76,0,0,0-.56,4.86c-.05,10.22-.1,20.45,0,30.67.08,8.4,4.06,14.44,11.65,18A18,18,0,0,0,34.53,85c10.32,0,20.64.1,31,0,8.37-.1,14.39-4.12,17.92-11.7a31.92,31.92,0,0,0,1.43-5.09,2.83,2.83,0,0,1,.17-.4V32.35C84.79,31.42,84.63,30.47,84.37,29.55ZM78.8,50.05c0,5.06,0,10.11,0,15.17a13.17,13.17,0,0,1-2.44,8,12.92,12.92,0,0,1-10.94,5.53q-15.4,0-30.81,0A12.88,12.88,0,0,1,22,69.83a14.53,14.53,0,0,1-.71-4.55c-.06-10.2,0-20.4,0-30.6a12.94,12.94,0,0,1,9-12.75,14.86,14.86,0,0,1,4.55-.7c10.18-.06,20.36,0,30.54,0a13.11,13.11,0,0,1,12.8,8.92,13.9,13.9,0,0,1,.71,4.7Z"/><path class="cls-1" d="M73.36,31.26a4.56,4.56,0,1,1-4.55-4.55A4.59,4.59,0,0,1,73.36,31.26Z"/><path class="cls-1" d="M50,32A18,18,0,1,0,68.05,50,18.1,18.1,0,0,0,50,32Zm0,29.84A11.81,11.81,0,1,1,61.83,50,11.82,11.82,0,0,1,50,61.79Z"/></svg>