<svg id="linkedIn" xmlns="http://www.w3.org/2000/svg" viewBox="0 0 100 100"><defs><style>.cls-1{fill:#f7f6f2;}</style></defs><path class="cls-1" d="M83.45,78.34c0,2.62-.53,3.14-3.13,3.15s-5.5,0-8.25,0S68.78,81,68.78,78.1c0-6.49,0-13,0-19.49A24.94,24.94,0,0,0,68.05,53a6,6,0,0,0-5.36-4.76,6.93,6.93,0,0,0-7.18,3,12.89,12.89,0,0,0-2,7.42q0,9.46,0,18.92c0,3.73-.2,3.94-3.86,3.94-2.62,0-5.24,0-7.86,0a2.25,2.25,0,0,1-2.59-2.57V39.19a2.28,2.28,0,0,1,2.57-2.6c2.94,0,5.88,0,8.82,0,2.31,0,2.85.57,2.91,2.81,0,.67,0,1.34,0,2.65,2.66-3.61,5.79-5.56,9.62-5.85a31.46,31.46,0,0,1,8.94.35c6.13,1.35,9.33,5.84,10.35,11.69a91,91,0,0,1,1,12.9C83.58,66.87,83.46,72.6,83.45,78.34Z"/><path class="cls-1" d="M32.9,39.6q0,19.45,0,38.93c0,2.21-.78,2.94-3,3-2.75,0-5.5,0-8.24,0-2.39,0-3.07-.67-3.08-3.07,0-6.49,0-13,0-19.47s0-12.72,0-19.08c0-2.65.63-3.27,3.28-3.29s5.37,0,8,0C32.1,36.61,32.89,37.39,32.9,39.6Z"/><path class="cls-1" d="M34.9,23.7a9.2,9.2,0,1,1-9.17-9.2A9.08,9.08,0,0,1,34.9,23.7Z"/></svg>