<svg id="Layer_7" data-name="Layer 7" xmlns="http://www.w3.org/2000/svg" viewBox="0 0 100 100"><defs><style>.cls-1{fill:#f7f6f2;}</style></defs><path class="cls-1" d="M81.72,38.67v30.8c0,3.24-2.22,5.87-5,5.87H23.26c-2.76,0-5-2.63-5-5.87v-33c0-.91.79-1.52,1.49-1.15L50,51.25,80.28,37.5C81,37.19,81.72,37.79,81.72,38.67Z"/><path class="cls-1" d="M81.72,30.52v3A1.27,1.27,0,0,1,81,34.66L50,48.75,18.91,32.38a1.28,1.28,0,0,1-.63-1.14v-.72c0-3.23,2.22-5.86,5-5.86H76.74C79.5,24.66,81.72,27.29,81.72,30.52Z"/></svg>