<svg id="resume" xmlns="http://www.w3.org/2000/svg" viewBox="0 0 100 100"><defs><style>.cls-1{fill:#f7f6f2;}</style></defs><path class="cls-1" d="M76.2,29.73H65.27A2.25,2.25,0,0,1,63,27.48V16.55a1.16,1.16,0,0,1,2-.82l12,12A1.16,1.16,0,0,1,76.2,29.73Z"/><path class="cls-1" d="M75.72,31.45H63.78A2.47,2.47,0,0,1,61.31,29V17.11A2.35,2.35,0,0,0,59,14.78H24.21A2.27,2.27,0,0,0,21.94,17V82.53a2.24,2.24,0,0,0,2.25,2.25H75.81a2.24,2.24,0,0,0,2.25-2.25V33.79A2.34,2.34,0,0,0,75.72,31.45ZM62,57.46a1,1,0,0,1-1,1H39a1,1,0,0,1-1-1v-.67a1,1,0,0,1,1-1H61a1,1,0,0,1,1,1Zm0-7.09a1,1,0,0,1-1,1H39a1,1,0,0,1-1-1V49.7a1,1,0,0,1,1-1H61a1,1,0,0,1,1,1Zm0-7.09a1,1,0,0,1-1,1H39a1,1,0,0,1-1-1v-.66a1,1,0,0,1,1-1H61a1,1,0,0,1,1,1Z"/></svg>