<svg id="twitter" xmlns="http://www.w3.org/2000/svg" viewBox="0 0 100 100"><defs><style>.cls-1{fill:#f7f6f2;}</style></defs><path class="cls-1" d="M85,28.88c-1.65,1.69-3.22,3.49-5,5.05a4.5,4.5,0,0,0-1.81,3.73,41.28,41.28,0,0,1-34,40.63A40,40,0,0,1,15,72.61a30,30,0,0,0,20.07-5.74,64.9,64.9,0,0,1-7.65-3.54,11.43,11.43,0,0,1-4.94-6.77l5.32-.35c-6.51-2.77-10.26-7.27-10.69-14.29l5.79.93c-3.8-3.57-6.22-7.76-5.55-13.17a57.39,57.39,0,0,1,1.52-6.22c8.28,9.46,18,14.66,30.28,15.5a43.66,43.66,0,0,1,0-5.49c1.38-10.74,14.27-16.2,22.88-9.59,2,1.52,3.58,1.77,5.69.84,1.7-.74,3.46-1.34,5.2-2l0,0-4.15,7.15,5.84-1.42Z"/></svg>