<svg xmlns="http://www.w3.org/2000/svg" viewBox="0 0 515.1 202.37"><g id="Layer_2" data-name="Layer 2"><g id="Layer_1-2" data-name="Layer 1"><path d="M22,23.6C22,10.49,30.27,2.22,43.58,2.22c20,0,36.93,17.75,36.93,45.39v1.82c0,1.41.4,1.82,1.41,1.82.8,0,1.41-.41,1.41-1.82V3.83c0-1.41-.61-1.82-1.41-1.82-1,0-1.41.41-1.41,1.82V5.45c0,4.43-5.45,1.61-10.29,0C63.15,2.82,54.48,0,44.59,0,15.74,0,.81,21.38.81,42.17c0,47.61,71.83,40.55,71.83,79.69,0,13.52-8.88,23.21-26.64,23.21-29.66,0-43.17-31.88-43.17-52.46v-2c0-1.41-.61-1.81-1.42-1.81S0,89.18,0,90.59v52.66c0,1.62.61,2,1.61,2,.61,0,1.22-.4,1.22-2V142c0-4.44,5-3,12.1-.6a87.66,87.66,0,0,0,30.87,5.85c32.08,0,50.64-20.78,50.64-43.38C96.44,55.69,22,62.54,22,23.6Z"/><path d="M187.24,111.78c-1.62,0-1.82.8-1.82,3.22,0,19.37-14.73,29.46-27.24,29.46-14.73,0-19-12.3-20-24.21a275.06,275.06,0,0,1,.2-38.74c1.21-13.32,3.43-21.79,16.34-21.79,7.67,0,12.92,2.42,12.92,6.86s-6.86,5.65-6.86,14.33c0,7.87,6.25,12.51,12.91,12.51,7.26,0,13.11-5,13.11-13.12,0-15.13-17.55-22.8-33.29-22.8-34.3,0-46.2,23.61-46.2,45.2,0,24.21,14.32,44.59,46.4,44.59,25.22,0,35.11-17.56,35.11-33.29C188.85,112.58,188.45,111.78,187.24,111.78Z"/><path d="M246.15,57.5c-31.07,0-48.22,20.38-48.22,45.2,0,24.21,18.36,44.59,48.42,44.59,31.07,0,48.43-20.38,48.43-45.2C294.78,77.88,276.21,57.5,246.15,57.5Zm17.55,62.75c-1,13.52-2.42,24.82-17.35,24.82-13.92,0-16.34-11.5-17.35-24.21a242.36,242.36,0,0,1-.2-36.32c1-13.52,2.62-24.82,17.55-24.82,13.72,0,16.34,11.5,17.35,24.21A218,218,0,0,1,263.7,120.25Z"/><path d="M337.34,23.2a1.75,1.75,0,0,0-1.81,1.21c-3.63,5.25-11.91,10.29-22.2,12.91A2.61,2.61,0,0,0,311.52,40V56h27V24.81C338.55,23.6,338.15,23.2,337.34,23.2Zm20,105.12c-1.62,0-1.41,1.21-1.41,3.23,0,8.07-4.44,12.51-9.89,12.51-6.26,0-7.47-4-7.47-12.51V63.76c0-.61.41-1.42,2-1.42h13.92c1.42,0,2-.4,2-1.21s-.4-1.21-2-1.21h-51c-1.42,0-2,.41-2,1.21s.4,1.21,2,1.21h6.05c1.61,0,2,.81,2,1.42v60.12c0,13.92,10.49,23.41,26.23,23.41,13.31,0,21.18-4.24,21.18-16.95C358.93,128.72,358.33,128.32,357.32,128.32Z"/><path d="M417.44,128.32c-1.61,0-1.41,1.21-1.41,3.23,0,8.07-4.44,12.51-9.88,12.51-6.26,0-7.47-4-7.47-12.51V63.76c0-.61.4-1.42,2-1.42h13.92c1.41,0,2-.4,2-1.21s-.41-1.21-2-1.21H363.57c-1.41,0-2,.41-2,1.21s.4,1.21,2,1.21h6.06c1.61,0,2,.81,2,1.42v60.12c0,13.92,10.5,23.41,26.23,23.41,13.32,0,21.19-4.24,21.19-16.95C419.06,128.72,418.45,128.32,417.44,128.32ZM398.68,24.81c0-1.21-.4-1.61-1.21-1.61a1.77,1.77,0,0,0-1.82,1.21c-3.63,5.25-11.9,10.29-22.19,12.91A2.61,2.61,0,0,0,371.64,40V56h27Z"/><path d="M513.48,59.92H487.26c-1.42,0-1.82.2-1.82,1s.4,1.21,1.82,1.21h3c5.05,0,7.27,2.83,7.27,8.07,0,5.45-2.22,13.12-5.25,20.18l-12.71,31.47h-.4l-21-52c-2.42-6.26-1.41-7.67,1.21-7.67h5.85c1.42,0,1.82-.4,1.82-1.21s-.61-1-1.82-1H421.88c-1.41,0-1.81.2-1.81,1s.4,1.21,1.81,1.21h2c2.42,0,3.23,1.41,6.05,7.87l34.1,73.85c1.41,3.23,2.63,6,2.63,8.07v35.51C466.68,194.7,462,200,455,200c-3.63,0-7.46-1.62-7.46-4.64,0-3.63,6.45-4.84,6.45-12.92,0-7.26-5.65-11.5-12.1-11.5-6.86,0-12.51,4.85-12.51,12.11,0,10.29,10.89,19.37,24.21,19.37,8.27,0,15.74-5.05,15.74-15.74v-34.7c0-2.22,1.21-5.25,2.42-8.07l23.4-54.08c2.43-5,5.25-11.9,7.47-16.54,4-8.27,5.85-11.1,10.89-11.1,1.22,0,1.62-.4,1.62-1.21S514.7,59.92,513.48,59.92Z"/></g></g></svg>